<?xml version="1.0" encoding="utf-8"?>
<!-- Generator: Adobe Illustrator 19.2.1, SVG Export Plug-In . SVG Version: 6.00 Build 0)  -->
<svg version="1.1" id="layer" xmlns="http://www.w3.org/2000/svg" xmlns:xlink="http://www.w3.org/1999/xlink" x="0px" y="0px"
	 viewBox="0 0 652 652" style="enable-background:new 0 0 652 652;" xml:space="preserve">
<style type="text/css">
	.st0{fill:#212529;}
</style>
<g>
	<path class="st0" d="M538.6,161.5c-30.9,0-55.9,25.1-55.9,55.9c0,30.8,25.1,55.9,55.9,55.9c30.8,0,55.9-25.1,55.9-55.9
		C594.6,186.6,569.5,161.5,538.6,161.5 M582.2,186.2c-2.9,1.9-5.9,3.7-9,5.2c-1.8-3.7-4.1-7.2-6.7-10.5c2.3-1.4,4.5-3,6.5-4.7
		C576.5,179.2,579.6,182.5,582.2,186.2 M558.7,167.6c4.5,1.8,8.7,4.2,12.5,7.2c-1.9,1.6-4,3-6.2,4.3c-2.7-3.1-5.8-6-9.2-8.5
		C556.9,169.7,557.9,168.7,558.7,167.6 M563,180.3c-3,1.6-6.2,2.9-9.4,3.9c-1.4-3.1-2.9-6.2-4.7-9.1c1.8-0.8,3.5-1.8,5.1-3
		C557.3,174.6,560.4,177.3,563,180.3 M556.4,166.8c-0.8,0.9-1.6,1.7-2.5,2.5c-2.9-2-6.1-3.8-9.4-5.2
		C548.7,164.6,552.6,165.5,556.4,166.8 M552.1,170.8c-1.3,1-2.8,1.8-4.3,2.4c-1.6-2.6-3.5-5.1-5.4-7.5
		C545.8,167.1,549,168.8,552.1,170.8 M539.8,166.1c2.1,2.5,4,5.1,5.8,7.9c-1.9,0.6-3.8,0.9-5.8,1V166.1z M539.8,177.3
		c2.4-0.1,4.8-0.5,7-1.3c1.7,2.8,3.2,5.8,4.6,8.9c-3.8,1-7.7,1.5-11.6,1.6V177.3z M537.4,166.2v8.8c-1.9-0.1-3.8-0.4-5.7-1
		C533.5,171.3,535.4,168.7,537.4,166.2 M529.5,173.2c-1.5-0.6-3-1.5-4.3-2.4c3-2,6.3-3.7,9.7-5.1C533,168.1,531.2,170.6,529.5,173.2
		 M532.8,164.1c-3.3,1.4-6.5,3.2-9.4,5.2c-0.9-0.8-1.7-1.7-2.5-2.5C524.7,165.4,528.7,164.5,532.8,164.1 M571.1,260.1
		c-7.4-4.1-7.6-9.7-7.2-11.8c0.4-2.1,1.8-1.2,2.8-1.2c4.9,0,10-1.4,16.4-7.9c7.1-7.3,9.4-23.5-1.6-34.1
		c-11.8-11.4-24.4-9.4-32.5,0.8c-1.7,2.1-5.7,3.6-9.2,3.5c-5.2-0.2-1.9,3.9-1.9,4.8c0,0.9-0.8,1.5-1.3,1.3c-1.8-0.5-1.1,2.1-1.1,2.9
		c0,0.8-0.7,1.2-1.1,1.2c-2.2,0-1.6,2-1.5,2.5c0.1,0.5-0.1,1.4-0.9,1.8c-0.7,0.4-1.5,2.1-1.5,3.4c0,2.4,2.2,4,5.8,6.7
		c3.6,2.7,4.1,5.3,4.1,7.1c0.1,1.8,0.2,4.8,1.1,6.8c1,2.4,0.8,6.7-4.2,6.9c-6.1,0.2-17,5.2-18,5.5c-3.5,1.2-8,1.7-11.6,0.8
		c-1.9-1.4-3.8-2.8-5.5-4.5c-0.7-2.5,0.5-5.1,1.8-6.9c2.1,2.1,5.1,1.9,6.8,2c1.7,0.1,10.1-1.2,11.3-1.6c1.2-0.4,1.7-0.3,2.4,0
		c3.2,1.2,7.6,1.5,9.4-4.6c1.8-6.1-2.4-4.4-3-4.2c-0.5,0.3-1.3,0.2-1-0.3c0.8-1.6-0.4-1.4-1.1-1.5c-1.7-0.2-4,1.7-4.7,2.3
		c-0.7,0.7-1.5,0.6-1.7,0.5c-2.3-1.1-9.1,0.5-11.2-3.2c0.2-1-1.7-15.9-2.7-18.5c-0.2-0.6-0.4-1.5,0.3-2.4c1.7-2.6,6.5,0.2,9.1,0.1
		c3.1-0.1,3.6-1.4,4.4-2.4c0.8-1,1.4-0.4,1.8-0.7c0.6-0.4,0-1.1,0.2-1.5c0.2-0.4,0.4-0.2,0.9-0.7c0.5-0.5-0.1-1.5,0.2-1.8
		c0.8-1.1,2.8-0.2,1.6-3.2c-0.7-1.6,0.3-3.4,1.2-4.6c1.5-1.9,7.3-10.1-2.9-18.5c-9.7-8-19.6-7.4-25.9-0.5
		c-6.3,6.9-3.2,16.9-2.5,19.5c0.7,2.6-1.2,5-3.4,6.1c-1.7,0.8-5.7,3.5-8.7,6.1c0.5-21.5,13.6-40.5,33.6-48.6c0.9,1.1,1.8,2.1,2.8,3
		c-2.2,1.6-7.1,6-7.1,6s0.7,0.1,1.3,0.3c0.4,0.1,1.3,0.4,1.3,0.4s4.3-3.6,6.3-5.1c1.6,1.2,3.3,2.2,5.1,3c-1,1.6-3.4,6.2-3.4,6.2
		s0.6,0.3,1.1,0.7c0.5,0.3,0.8,0.6,0.8,0.6s2.7-5,3.7-6.7c2.2,0.7,4.6,1.2,7,1.3v9.2c-1.3,0-4.7-0.2-6.1-0.3l-0.9-0.1l0.5,0.7
		c0.4,0.5,0.6,1.1,0.9,1.5l0.1,0.2l0.2,0c1,0.1,4.1,0.2,5.2,0.2v16.8h2.3v-3.8c3.4-0.2,6.3-0.4,9.7-0.7l0.1,0l3-2.7l-1.6,0.1
		c-3.6,0.5-6.8,0.7-9.7,0.9c0,0-1,0.1-1.5,0.1v-10.6c4.2-0.1,8.4-0.7,12.6-1.8c1.1,2.8,3.3,9.5,3.3,9.5l2.2-0.7c0,0-2.1-6.7-3.2-9.4
		c3.5-1.1,6.9-2.5,10-4.3c2.6,3.2,4.8,6.6,6.6,10.3c-1.6,0.8-4.7,1.8-4.7,1.8c2.4,0.3,4.2,0.8,4.2,0.8s0.9-0.4,1.4-0.6
		c0.2,0.5,0.6,1.5,0.6,1.5l3,1.3l-0.4-0.8c0,0-1-2.4-1.2-2.9c3.2-1.6,6.3-3.4,9.3-5.4c5.7,8.7,8.7,18.9,8.7,29.3
		C592.3,234.8,584,250.3,571.1,260.1"/>
	<path class="st0" d="M477.6,176.3l-0.9,0.8c-3.3,2.9-10.8,10.6-9.6,19c0,0,0.1,0.6,0.1,0.6c0,0,0.4,1.7,0.4,1.7l1-1
		c4.6-4.2,8-11.3,9.4-19.5l0.4-2.3L477.6,176.3z"/>
	<path class="st0" d="M462.4,190.9l-0.4,1c-0.5,1.4-1.5,4.4-2,8.3c-0.7,5.6-0.5,13.4,4.3,19.3c0,0,0.5,0.7,0.5,0.7l0.6,0.7l0.7-3.6
		c0.8-6.3-0.3-19.5-2.6-25.4l-0.8-2L462.4,190.9z"/>
	<path class="st0" d="M456.8,213.6l-0.1,1c-0.4,5.7-0.1,19.6,11.2,27c0,0,1.3,0.9,1.3,0.9l-0.1-1.6c-0.2-5.3-6.4-21.1-11-26.8
		l-1.3-1.6L456.8,213.6z"/>
	<path class="st0" d="M458.8,238.6l0.2,1c1.7,8,9.3,21,21,24.8l1.6,0.5l-0.6-1.6c-2.2-6-13.5-20-20.8-24.6l-1.6-1L458.8,238.6z"/>
	<path class="st0" d="M482.3,188.4l-0.9,0.6c-8.7,5.3-12.8,11.8-12.5,19.8l0.1,1.8l1.3-1.1c4.7-3.9,10.6-13.9,12.4-19.6l0.6-2.1
		L482.3,188.4z"/>
	<path class="st0" d="M477.2,205.9l-0.7,0.6c-2.2,2.1-9.5,9.8-8.8,19.4c0.1,1.5,0.4,3,1,4.7l0.5,1.5l0.9-1.3
		c3.5-4.9,8-17.7,7.8-23.7l-0.1-1.8L477.2,205.9z"/>
	<path class="st0" d="M477.6,222.4l-0.5,0.7c-3.7,5.4-5.5,11-5.4,16.1c0.1,3.8,1.3,7.4,3.6,10.8l0.8,1.1l0.6-1.2
		c1.6-3,2.8-12.6,2.6-20.2c-0.1-2.7-0.3-4.9-0.8-6.4l-0.5-1.7L477.6,222.4z"/>
	<path class="st0" d="M481.8,240.1l-0.2,0.8c-1.1,3.5-1.6,7-1.5,10.2c0.2,7.4,3.5,13.2,9.7,17.2l1.1,0.7l0.2-1.4
		c0,0,0.1-1.1,0.1-1.1c-0.2-6-4.7-21.1-8.2-25.8l-1-1.3L481.8,240.1z"/>
	<path class="st0" d="M469.5,263.6l0.5,0.8c4.7,7.9,12.7,18.1,27.6,15.5l1.2-0.2l-0.7-1c-2.8-4.1-20.9-14.4-27.3-15.4l-1.8-0.3
		L469.5,263.6z"/>
	<path class="st0" d="M491.6,283.6L491.6,283.6l-2.3,0.6l2.2,0.9c9.5,3.9,21.4,5,28.3,2.7c2.6-0.9,4.2-2.3,6.1-4.2
		c12.2,1.3,23.5,11.4,30.2,19.6l0.4,0.4l0.5-0.2c0.7-0.3,1.9-1.1,2.4-1.7l0.5-0.5l-0.4-0.6c-6.9-9-17.8-14.7-18.2-14.9
		C531.4,281.2,514.2,277.5,491.6,283.6"/>
	<path class="st0" d="M492.1,258.4l0.1,0.8c1.4,9,5.1,20.7,20.2,19.4l1-0.1l-0.2-0.9c-1-4.1-14.9-15.9-19.7-19.2l-1.4-0.8
		L492.1,258.4z"/>
	<path class="st0" d="M599,175.6l0.4,2.3c1.4,8.2,4.9,15.3,9.4,19.5l1.1,1c0,0,0.4-1.7,0.4-1.7c0,0,0.1-0.6,0.1-0.6
		c1.2-8.4-6.3-16.1-9.6-19l-0.9-0.8L599,175.6z"/>
	<path class="st0" d="M614.7,189.9l-0.8,2c-2.3,5.9-3.4,19.1-2.6,25.4l0.7,3.6l0.6-0.7c0,0,0.5-0.7,0.5-0.7c4.8-5.9,5-13.7,4.3-19.3
		c-0.5-3.9-1.4-6.9-2-8.3l-0.4-1L614.7,189.9z"/>
	<path class="st0" d="M620.6,212.6l-1.3,1.6c-4.6,5.7-10.8,21.5-11,26.8l-0.1,1.6c0,0,1.3-0.9,1.3-0.9c11.3-7.4,11.6-21.4,11.2-27
		l-0.1-1L620.6,212.6z"/>
	<path class="st0" d="M618.9,237.6l-1.6,1c-7.3,4.6-18.6,18.6-20.8,24.6l-0.6,1.6l1.6-0.5c11.7-3.8,19.3-16.8,21-24.8l0.2-1
		L618.9,237.6z"/>
	<path class="st0" d="M594.6,187.6l0.6,2.1c1.6,5.7,7.3,15.8,12,19.8l1.3,1.1l0.1-1.8c0.5-8-3.5-14.5-12.1-20l-0.9-0.6L594.6,187.6z
		"/>
	<path class="st0" d="M599.6,205.3l-0.1,1.8c-0.2,6,4.3,18.8,7.8,23.7l0.9,1.3l0.5-1.5c0.6-1.6,0.9-3.2,1-4.7
		c0.6-9.5-6.6-17.2-8.8-19.4l-0.7-0.6L599.6,205.3z"/>
	<path class="st0" d="M599.4,221.7l-0.5,1.7c-0.4,1.5-0.7,3.7-0.8,6.4c-0.2,7.6,1.1,17.2,2.6,20.2l0.6,1.2l0.8-1.1
		c2.3-3.4,3.5-7,3.6-10.8c0.1-5.1-1.7-10.7-5.4-16.1l-0.5-0.7L599.4,221.7z"/>
	<path class="st0" d="M595.4,239.4l-1,1.3c-3.5,4.6-8,19.8-8.2,25.8c0,0,0.1,1.1,0.1,1.1l0.2,1.4l1.1-0.7c6.3-4,9.5-9.8,9.7-17.2
		c0.1-3.3-0.4-6.7-1.5-10.2l-0.2-0.8L595.4,239.4z"/>
	<path class="st0" d="M608.4,262.8l-1.7,0.3c-6.4,1-24.5,11.3-27.3,15.4l-0.7,1l1.2,0.2c15,2.6,22.9-7.6,27.6-15.5l0.5-0.8
		L608.4,262.8z"/>
	<path class="st0" d="M536.3,286c-0.5,0.2-11.3,5.8-18.2,14.9l-0.4,0.6l0.5,0.5c0.5,0.5,1.6,1.4,2.4,1.7l0.5,0.2
		c0,0,0.4-0.4,0.4-0.4c6.6-8.3,18-18.4,30.2-19.6c1.9,1.9,3.5,3.3,6.1,4.2c6.9,2.3,18.8,1.2,28.3-2.7l2.3-0.9l-2.3-0.6
		C563.3,277.5,546,281.2,536.3,286"/>
	<path class="st0" d="M585.5,257.6l-1.4,0.8c-4.8,3.3-18.7,15.1-19.7,19.2l-0.2,0.9l1,0.1c15.1,1.3,18.8-10.4,20.2-19.4l0.1-0.8
		L585.5,257.6z"/>
	<path class="st0" d="M198.8,165.4h19.1v17.4h-10.1h-9V165.4z M200.3,202.6h7.4h8.6v84.9h-16.1V202.6z"/>
	<path class="st0" d="M79,202.7h16.1v84.9H79.4v-12.5H79c-6.4,10.7-17.3,15-29.1,15c-17.8,0-27.9-13.5-27.9-30.6v-56.8h16.1v50.2
		c0,14.7,3.4,25.5,18.8,25.5c6.6,0,15.6-3.4,18.9-12.2c3-8,3.2-17.9,3.2-20V202.7z"/>
	<path class="st0" d="M127.2,215.2h0.3c5.4-10.6,17.2-15,25.7-15c5.9,0,32.1,1.5,32.1,28.7v58.7h-16.1v-53.4
		c0-14-5.9-21.6-19.4-21.6c0,0-8.8-0.5-15.6,6.3c-2.4,2.4-6.8,6.1-6.8,22.7v46.2h-16.1v-84.9h15.7V215.2z"/>
	<path class="st0" d="M283.6,229.9c-0.8-10.6-5.9-18-17.3-18c-15.3,0-21.2,13.2-21.2,33.1c0,19.8,5.9,33.1,21.2,33.1
		c10.6,0,17.1-6.9,18-19h16c-1.4,19-15.5,30.6-34.1,30.6c-27,0-37.8-19.1-37.8-44c0-24.7,12.4-45.4,39.2-45.4
		c17.8,0,31.2,11.3,32,29.6H283.6z"/>
	<path class="st0" d="M324.3,248.1c-1.2,14.8,4.9,30.1,21.2,30.1c12.4,0,18.7-4.9,20.5-17.2h16.8c-2.5,19.2-17.3,28.7-37.5,28.7
		c-27.1,0-37.8-19.1-37.8-44c0-24.7,12.5-45.4,39.2-45.4c25.2,0.5,37.1,16.5,37.1,39.8v7.9H324.3z M366.9,237
		c0.3-14.1-6.1-25-21.5-25c-13.3,0-21.2,11.2-21.2,25H366.9z"/>
	<path class="st0" d="M401.8,287.2V214h-14.5v-11.1h14.5v-18.1c0.5-18.5,14.4-23.3,26.4-23.3c3.9,0,7.6,1,11.4,1.7v13.3
		c-2.7-0.1-5.4-0.5-8.1-0.5c-9.1,0-14.3,2.4-13.8,11.6v15.5h19.5V214h-19.5v73.2H401.8z"/>
	<polygon class="st0" points="21.7,345.7 614.8,345.7 614.8,348.9 323.1,348.9 21.7,348.9 	"/>
	<path class="st0" d="M31.6,461.3v-47.7H20.8v-5.9h10.8v-11.4c0-9.2,3.7-13.3,12.9-13.3c2,0,4.2,0.7,6.1,1.2v5.1
		c-1.3-0.2-2.7-0.4-3.9-0.4c-8.8,0-9,4.4-8.6,12.1v6.8h12.2v5.9H38v47.7H31.6z"/>
	<path class="st0" d="M102.5,434.5c0,14.1-7.9,28.4-25,28.4c-17.1,0-25-14.3-25-28.4c0-14.1,7.9-28.4,25-28.4
		C94.6,406.1,102.5,420.4,102.5,434.5 M77.5,412c-12.9,0-18,12.6-18,22.5c0,9.9,5.1,22.5,18,22.5c12.9,0,18-12.6,18-22.5
		C95.5,424.5,90.4,412,77.5,412"/>
	<path class="st0" d="M118.2,461.3h-6.4v-41.5c0.1-4.2-0.3-8.4-0.5-12.1h6.6l0.3,7.9h0.2c1.9-5.4,6.7-9.3,12.1-9.5
		c2.1-0.1,4.3,0,6.4,0.1v6.2c-1.3-0.1-2.7-0.4-4-0.4c-9.5,0-14.5,6.8-14.7,17.1V461.3z"/>
	<path class="st0" d="M167.9,436c0.2,11.4,5.4,21,18.6,21c7.6,0,13.9-5.4,15.5-12.8h6.7c-3.3,12.8-11.3,18.7-24.2,18.7
		c-16,0-23.5-13.8-23.5-28.4c0-14.5,8-28.4,23.9-28.4c17.9,0,24.4,13.1,24.4,29.9H167.9z M202.4,430.1c-0.7-10.4-6.3-18.1-17.4-18.1
		c-10.5,0-16,8.8-16.9,18.1H202.4z"/>
	<polygon class="st0" points="218,407.7 236.4,452.4 254.3,407.7 261.3,407.7 240.1,461.2 232.8,461.2 210.9,407.7 	"/>
	<path class="st0" d="M269.6,436c0.2,11.4,5.4,21,18.6,21c7.6,0,13.9-5.4,15.5-12.8h6.7c-3.3,12.8-11.3,18.7-24.2,18.7
		c-16,0-23.5-13.8-23.5-28.4c0-14.5,8-28.4,23.9-28.4c17.9,0,24.4,13.1,24.4,29.9H269.6z M304,430.1c-0.7-10.4-6.3-18.1-17.4-18.1
		c-10.5,0-16,8.8-16.9,18.1H304z"/>
	<path class="st0" d="M327.3,461.3h-6.4v-41.5c0.1-4.2-0.3-8.4-0.5-12.1h6.6l0.3,7.9h0.2c1.9-5.4,6.7-9.3,12.1-9.5
		c2.1-0.1,4.3,0,6.4,0.1v6.2c-1.3-0.1-2.7-0.4-4-0.4c-9.5,0-14.5,6.8-14.7,17.1V461.3z"/>
	<polygon class="st0" points="359.8,407.7 377.8,452.5 395.7,407.7 402.7,407.7 373.1,481.7 366.1,481.7 374.2,461.2 352,407.7 	"/>
	<path class="st0" d="M463.7,424.1c-0.5-8.2-5.8-12.2-14.6-12.2c-9.8,0-15.9,10.2-15.9,22.4c0,12.3,6.1,22.6,15.9,22.6
		c8.3,0,14.1-5.1,14.6-12.5h6.9c-1.7,12.3-8.7,18.4-20.9,18.4c-16,0-23.5-13.8-23.5-28.4c0-14.5,8-28.4,23.9-28.4
		c11,0,20,6.6,20.5,18H463.7z"/>
	<path class="st0" d="M486,415.8h0.2c3.7-6.6,9.8-9.7,16.8-9.7c17.5,0,18.9,15.5,18.9,21.7v33.5h-6.4v-34.6
		c0-9.3-5.3-14.7-14.1-14.7c-10.6,0-15.4,8.9-15.4,18.5v30.8h-6.4v-77h6.4V415.8z"/>
	<path class="st0" d="M539.6,392.2h-5.1h-2.4v-8h7.5V392.2z M539,461.3h-6.4v-53.6h3.9h2.5V461.3z"/>
	<polygon class="st0" points="558,461.3 551.6,461.3 551.6,434.4 551.6,384.2 556.5,384.2 558,384.2 	"/>
	<path class="st0" d="M608.4,453.4l-0.2-0.4c-4.4,6.4-10.9,9.9-18.4,9.9c-15.9,0-22-15.2-22-28.6c0-13.9,6.1-28.2,22-28.2
		c7.2,0,14.6,3.4,18.4,9.7l0.2-0.2v-31.4h6.4v65c0,4.2,0.3,8.4,0.5,12.1h-6.6L608.4,453.4z M590.9,412c-12.2,0-16.1,11.3-16.1,21.6
		c0,9.9,2.9,23.5,15.2,23.5c14,0,18.2-11.6,18.2-23.8C608.2,422.3,603.4,412,590.9,412"/>
</g>
</svg>
